<?xml version="1.0" encoding="UTF-8"?> <svg xmlns="http://www.w3.org/2000/svg" xmlns:xlink="http://www.w3.org/1999/xlink" version="1.1" id="Layer_1" x="0px" y="0px" viewBox="0 0 80 80" style="enable-background:new 0 0 80 80;" xml:space="preserve"> <style type="text/css"> .st0{fill:#FFFFFF;fill-opacity:0;} .st1{clip-path:url(#SVGID_00000047018595900435342770000015644824996271117454_);} .st2{fill-rule:evenodd;clip-rule:evenodd;fill:#ED1C24;} .st3{fill:#ED1C24;} .st4{fill:#FFFFFF;} .st5{fill:#F7941D;} </style> <g id="bkash" transform="translate(-2471 2031)"> <rect id="Rectangle_92" x="2471" y="-2031" class="st0" width="80" height="80"></rect> <g> <defs> <rect id="SVGID_1_" x="2471" y="-2007.5" width="80" height="33"></rect> </defs> <clipPath id="SVGID_00000154400977134391969380000014951588357318094777_"> <use xlink:href="#SVGID_1_" style="overflow:visible;"></use> </clipPath> <g style="clip-path:url(#SVGID_00000154400977134391969380000014951588357318094777_);"> <path class="st2" d="M2533.1-1994.5c0-0.6,0-1.2,0-1.8c0-0.4,0.1-0.5,0.5-0.5c0.1,0,0.1,0,0.2,0h16.3c0.1,0,0.3,0,0.4,0 c0.3,0.1,0.5,0.2,0.5,0.5c0,0.2,0,0.4,0,0.6c0,0.4-0.2,0.6-0.6,0.6c-0.1,0-0.2,0-0.2,0h-8.7v3.7c0.1-0.1,0.3-0.2,0.4-0.3 c0.9-0.7,1.8-1.5,2.8-2.2c0.5-0.3,1.1-0.5,1.6-0.7c0.2-0.1,0.4-0.1,0.5,0c1,0.3,2,0.7,2.6,1.7c0.3,0.4,0.3,0.6-0.2,0.9 c-0.3,0.2-0.6,0.6-0.7,0.9c-0.5,0.9-0.6,1.9-0.7,2.9c-0.1,1.1-0.2,2.1,0.1,3.2c0.1,0.4,0.2,0.7,0.4,1c0.2,0.4,0.5,0.5,1,0.4 c0.6-0.2,0.8-0.1,0.9,0.5c0.1,0.5,0.1,1-0.3,1.4c-0.5,0.4-1.1,0.4-1.7,0.2c-0.7-0.2-1.2-0.7-1.5-1.4c-0.5-1-0.8-2.1-0.9-3.2 c-0.1-1.7-0.2-3.4-0.4-5.1c-0.1,0.1-0.3,0.1-0.4,0.2c-1.7,1.1-2.6,2.7-3,4.6c-0.1,0.3-0.1,0.5-0.1,0.8c0,0.1,0,0.2-0.1,0.2 c0,0.1-0.1,0.1-0.2,0.2c-0.1,0-0.1,0.1-0.2,0.1c-0.1,0-0.2,0-0.2,0c-0.6-0.3-1.3-0.5-1.9-0.8c-0.1,0-0.2-0.1-0.2-0.2 c-0.1-0.1-0.1-0.2-0.1-0.3c0-2.8,0-5.6,0-8.3v-0.4h-3.1v0.4c0,4.5,0,9,0,13.5c0,0.1,0,0.2,0,0.3c0,0.1,0,0.2-0.1,0.2 c0,0.1-0.1,0.1-0.2,0.2c-0.1,0-0.1,0-0.2,0c-0.1,0-0.1,0-0.2-0.1c-0.6-0.3-1.1-0.7-1.7-1c-0.1,0-0.2-0.1-0.2-0.2 c0-0.1-0.1-0.2-0.1-0.3c0-3.3,0-6.5,0-9.8c0-0.3-0.1-0.5-0.2-0.7c-0.5-0.9-1.2-1.6-2.1-2.2c-0.3-0.2-0.7-0.4-1.1-0.5 s-0.8,0-1.2,0.1c-0.2,0.1-0.4,0.2-0.6,0.3c-0.2,0.1-0.3,0.3-0.4,0.5c-0.1,0.2-0.1,0.4-0.1,0.6s0.1,0.4,0.2,0.6 c0.3,0.4,0.7,0.4,1,0.2c0.8-0.2,1.5-0.2,2.1,0.3c0.7,0.6,1.3,1.4,1.3,2.4c0,2-1,3.4-2.9,3.8c-1.4,0.3-2.6,0-3.5-1.2 c-0.2-0.3-0.4-0.6-0.4-1c0-0.4,0-0.7,0.2-1.1c0.1-0.3,0.2-0.6,0.4-0.9c0.1,0.1,0.2,0.3,0.3,0.4c0.4,0.7,1,0.9,1.7,0.9 c0.6,0,1.2-0.2,1.7-0.6c0.6-0.5,0.4-1.4-0.3-1.6c-0.2-0.1-0.5,0-0.7,0.1c-1.2,0.5-2.3,0.4-3.3-0.3c-1.2-0.8-1.3-2.5-0.5-3.8 c0.7-1,1.8-1.5,3-1.7c1.7-0.3,3.1,0.3,4.3,1.4C2532.3-1995.2,2532.7-1994.9,2533.1-1994.5z"></path> <path class="st2" d="M2517.1-1988.3c0.4,0.2,0.7,0.4,1.1,0.6c1.1,0.8,1,2.5-0.1,3.4c-1.3,1-3.6,0.8-4.8-0.5 c-0.8-0.8-1.1-1.8-1.2-2.9c-0.1-1,0.1-2.1,0.7-3c1.1-1.6,2.7-2,4.5-1.3c1.2,0.5,2,1.4,2.8,2.3c0.1,0.1,0.1,0.1,0.2,0.3v-5.6 c-0.2,0-0.3,0-0.5,0h-9.1c-0.2,0-0.3,0-0.5,0c-0.1,0-0.1,0-0.2,0c0,0-0.1-0.1-0.1-0.1c0,0-0.1-0.1-0.1-0.1s0-0.1,0-0.2 c0-0.3,0-0.7,0-1c0-0.1,0-0.1,0-0.2c0-0.1,0.1-0.1,0.1-0.1c0,0,0.1-0.1,0.1-0.1c0.1,0,0.1,0,0.2,0c0.1,0,0.2,0,0.3,0 c4.2,0,8.5,0,12.7,0c0.2,0,0.4,0,0.6,0.1c0.1,0,0.2,0.1,0.2,0.2s0.1,0.2,0,0.3c0,0.2,0,0.4,0,0.5c0,0.5-0.1,0.6-0.7,0.7h-0.5v0.5 c0,4.5,0,9,0,13.5c0,0.2,0,0.3-0.1,0.5c0,0.1-0.1,0.1-0.1,0.2c0,0-0.1,0.1-0.2,0.1c-0.1,0-0.1,0-0.2,0s-0.1,0-0.2-0.1 c-0.6-0.3-1.1-0.7-1.7-1c-0.1,0-0.1-0.1-0.2-0.2s-0.1-0.2-0.1-0.3c0-1,0-2,0-3c-0.1-1.7-1.4-4.1-3.3-4.6 c-0.3-0.1-0.7-0.2-1.1-0.2c-1,0-2,1.1-1.7,2.1c0.1,0.2,0.2,0.4,0.3,0.5c0.2,0.2,0.5,0.3,0.8,0.4c0.3,0.1,0.6,0.1,0.9,0 c0.6-0.1,0.9-0.5,0.9-1.1L2517.1-1988.3z"></path> <path class="st3" d="M2485.6-1992.7c0,0-1,0.2-0.9-0.3c0-0.2,0.1-0.2,0.2-0.2c0-0.1-0.2-0.3,0.2-0.4c0.1-0.1,0.2-0.3,0.3-0.5 c0-0.1,0.2-0.3,0.5-0.2c0.3,0.1,0.6,0.3,0.8,0.5c0.2,0,0.5,0,0.4,0.1c-0.1,0-0.1,0.1-0.1,0.1c0,0,0.1,0.1-0.2,0.1 c0,0.1,0.1,0.1,0.2,0.1c0.1,0,0,0.1,0,0.1s0.1,0.2-0.1,0.1c-0.2-0.1-0.2-0.1-0.3-0.1c-0.1,0-0.2,0-0.2,0.1c0,0.1,0.2,0.2,0,0.2 c0,0,0.1,0.1,0,0.2c-0.1,0-0.5,0.4-0.7,0.4c-0.2,0-0.3-0.1-0.2-0.1C2485.4-1992.5,2485.5-1992.6,2485.6-1992.7 C2485.6-1992.6,2485.6-1992.7,2485.6-1992.7z"></path> <path class="st3" d="M2485.5-1991.7c-0.1,0-0.4-0.2-0.2-0.3c0.3-0.2,0.6-0.4,0.9-0.6c0.1,0,0.3,0.1,0.2,0.3 S2485.5-1991.7,2485.5-1991.7z"></path> <path class="st3" d="M2486.5-1992.1c0-0.2,0.1-0.4,0.1-0.6c0-0.1,0.3-0.1,0.2,0.2C2486.8-1992.1,2486.5-1992,2486.5-1992.1z"></path> <path class="st3" d="M2487-1992.9c0,0,1.8-0.1,1.9,0c0.1,0.1,0.8,1,0.6,1.9c-0.1,0.8-0.4,1-1.6,1.2c0-0.3-0.1-1-0.2-1.2 c-0.1-0.2-0.5-0.6-0.7-0.6c0,0.2,0,0.8,0,0.8s-0.6,0-0.6-0.1c0-0.2,0-0.9,0-0.9s0.5-0.5,0.6-0.6c0.1,0,0.1,0.3,0.7,0.3 C2487.7-1992.1,2486.9-1992.1,2487-1992.9z"></path> <path class="st3" d="M2486.3-1992.1c0,0-0.6,0.5-0.7,0.6c-0.1,0.2-0.1,0.6,0.6,0.6C2486.3-1991.2,2486.3-1992.1,2486.3-1992.1z"></path> <path class="st3" d="M2484.9-1991.3c-0.2,0-0.3,0-0.3-0.2c0-0.1,0.1-0.2,0.2-0.2c0.1,0,0.2-0.1,0.3-0.1c0.2,0,0.4,0.1,0.4,0.7 c0.2,0.2,0.6,0.4,0.9,0.4c0.4,0,0.7,0,0.7,0.1v0.8c0,0-0.5,0-1.8-0.9c-0.1-0.1-0.1-0.1-0.1-0.2c0-0.1,0-0.2,0-0.2 C2485.1-1991.2,2485-1991.3,2484.9-1991.3z"></path> <path class="st3" d="M2484.5-1991.3c-0.2,0-0.8,0.5-0.4,0.7c0.1-0.1,0.2-0.2,0.2-0.3c0,0-0.1,0.3,0.1,0.4 c0.2,0.1,0.1-0.1,0.3-0.1c0.1,0.1,0.1,0.2,0.2,0.2s0.2-0.4,0-0.6C2484.9-1991.1,2484.8-1991.2,2484.5-1991.3z"></path> <path class="st3" d="M2487.2-1991.2v1.6c0,0,0.5-0.2,0.6-0.3C2487.8-1990.1,2487.7-1991.2,2487.2-1991.2z"></path> <path class="st3" d="M2485.9-1990.1c0.3,0.2,0.7,0.4,1,0.6c-0.1,0.1-0.3,0.4-0.4,0.4C2486.4-1989.2,2485.9-1989.8,2485.9-1990.1z "></path> <path class="st3" d="M2483.6-1989.2h-1.6l-0.1-0.3h1.6V-1989.2z"></path> <path class="st3" d="M2487.9-1989.7c0.1-0.1,0.5,0.3,0.4,0.3s-1.3,0.5-1.4,0.5c-0.1,0-0.1-0.3,0-0.4S2487.7-1989.5,2487.9-1989.7 z"></path> <path class="st3" d="M2486.7-1988.9c-0.1-0.1-0.9,0.6-0.5,0.7c0.4,0.1,0.9,0.2,1.3,0.3c0.2-0.1,0.4-0.2,0.3-0.3 c0.1,0,0.3,0.2,0.5,0.1c0.4-0.2,0.8-0.5,1.1-0.8c-0.2-0.2-0.6-0.4-0.7-0.4C2488.5-1989.3,2487.2-1988.6,2486.7-1988.9z"></path> <path class="st3" d="M2486.3-1988c0.1,0,1,0.4,1.2,0.3c0.2,0,0.3-0.3,0.4-0.3c0.1,0,0.2,0.1,0.4,0c0.2-0.2,0.5-0.4,0.7-0.6 c0,0.1,0,0.5-0.9,0.9c-0.9,0.4-2.8,0.9-2.9,1.2c0.2,0,0.3,0,0.5-0.1c0.1,0.1,0.2,0.2,0.2,0.4c0,0.1,0.1,0.3,0,0.4 c0,0.4-0.4,1.2-0.4,1.4s0,1.1,0,1.2c0,0.1,0.2,0.6-0.1,0.6c-0.2,0-0.3,0-0.5,0c-0.1,0-0.3,0.2-0.5,0.2s-0.5-0.1-0.5-0.2 s0.2-0.1,0.4-0.1s0.3-0.3,0.6-0.4c0-0.2-0.1-1.8-0.1-2.1s-0.1-1,0-1.3C2485.2-1986.9,2485.9-1988,2486.3-1988z"></path> <path class="st3" d="M2487.5-1987.1c0,0.1,0.6,1.5,0.8,1.6c0.3,0,2.6-0.5,3.1-0.3c0.1,0.2,0.4,0.5,0.4,0.7c0,0.2,0,0.3,0,0.5 c0.1,0,0.1,0,0.2,0c0.1,0,0.1-0.1,0.1-0.1c0-0.1,0-0.8,0-0.9c0-0.1,0.3-0.7-0.1-0.7c-0.4,0-1.5,0-1.8-0.1 c-0.4-0.1-1.2-0.2-1.4-0.1c-0.2,0.1-0.3,0.3-0.4,0.5c-0.1,0-0.1-0.1,0-0.3c0.1-0.2,0.4-1,0.3-1.4 C2488.5-1987.7,2487.5-1987.1,2487.5-1987.1z"></path> <path class="st3" d="M2486.1-1989.3c0,0.1,0.1,0.2,0.1,0.2l-1.9-0.1c0,0-0.2-0.1-0.1-0.2L2486.1-1989.3z"></path> <path class="st3" d="M2484.1-1989.5h1.9c-0.1-0.1-0.1-0.2-0.2-0.4c-0.3,0-1.8,0-1.8,0s-0.2,0-0.2,0.4 C2483.8-1989.4,2484-1989.2,2484.1-1989.5z"></path> <path class="st3" d="M2481.5-1989.2h0.4c0,0,0.1-0.1,0-0.2c-0.1-0.1-0.4-0.2-0.2-0.5c-0.2,0-0.5-0.1-0.4,0.5h-0.2 c0-0.1-0.1-0.2-0.2-0.3c-0.1-0.1-0.2-0.1-0.3-0.1c-0.4,0-1.5,0.4-1.5,0.4s1.2,0.3,1.5,0.3c0.1,0,0.2,0,0.3-0.1 c0.1-0.1,0.2-0.1,0.2-0.2h0.1c0,0.1,0.1,0.2,0.1,0.3c0,0.2,0,0.4,0,0.4c-0.1,0-0.1,0.1-0.1,0.1s0,0.1,0,0.2 c0,0.2,0.1,0.2,0.2,0.2c0,0,0.1-0.1,0.2-0.1c0-0.1,0-0.1,0-0.2c0-0.1-0.1-0.1-0.1-0.2c0-0.1,0-0.3,0-0.3s0.2-0.1,0.1-0.2 C2481.6-1989.1,2481.5-1989.1,2481.5-1989.2z"></path> <path class="st3" d="M2484.5-1987.3L2484.5-1987.3c0.1-0.1,0.2-0.2,0.2-0.3v0c0,0,0-0.9,0-1.1c0-0.3-0.5-0.5-0.5-0.5l0,0l0,0 c-0.1,0.1-0.2,0.1-0.3,0.1c-0.1,0-0.1,0-0.2,0c-0.1,0-0.1-0.1-0.1-0.1l0,0h0c-0.4,0-0.6,0.5-0.6,0.5v0c0,0.3,0,0.7,0,1 c0,0.1,0.1,0.2,0.2,0.3c-0.1,0.3-0.5,1.8,0.1,1.9v0.3h1.3v-0.3C2485-1985.7,2484.6-1987,2484.5-1987.3z M2483.1-1988.7 c0-0.1,0.2-0.4,0.5-0.4c0,0.1,0.1,0.1,0.2,0.1c0.1,0,0.1,0,0.2,0c0.1,0,0.2-0.1,0.3-0.1c0.1,0.1,0.4,0.2,0.4,0.4c0,0.2,0,1,0,1.1 c0,0.1-0.1,0.1-0.1,0.2h-0.3v-0.5h-0.9v0.5h-0.2c-0.1-0.1-0.1-0.2-0.2-0.3C2483.1-1988,2483.1-1988.4,2483.1-1988.7 L2483.1-1988.7z M2484-1985.7h-0.2c0,0,0,0-0.1,0c0,0,0,0,0-0.1s0,0,0-0.1c0,0,0,0,0.1,0h0.2c0,0,0,0,0.1,0 C2484-1985.8,2484-1985.8,2484-1985.7C2484-1985.8,2484-1985.7,2484-1985.7C2484-1985.7,2484-1985.7,2484-1985.7z M2484.4-1985.6 l-0.6-0.7l-0.6,0.7c-0.4-0.1-0.1-1.3,0-1.8l1.2,0C2484.6-1986.9,2484.8-1985.8,2484.4-1985.6L2484.4-1985.6z"></path> <path class="st3" d="M2484.3-1986.9c0-0.1,0.1-0.1,0.1-0.2c0-0.1,0-0.1-0.1-0.2h-0.7c-0.2,0-0.2,0.3-0.2,0.3l0.5,0.4 C2484-1986.6,2484.1-1986.7,2484.3-1986.9z"></path> <path class="st3" d="M2484-1986.4l0.4,0.5c0,0,0-0.6-0.1-0.8C2484.2-1986.7,2484-1986.4,2484-1986.4z"></path> <path class="st3" d="M2483.3-1986.7c0,0.2-0.1,0.8-0.1,0.8l0.4-0.5C2483.7-1986.4,2483.4-1986.7,2483.3-1986.7z"></path> <path class="st3" d="M2484.2-1988.1L2484.2-1988.1L2484.2-1988.1c0.1-0.1,0.1-0.1,0.1-0.1c0,0,0,0-0.1,0h-0.7c0,0,0,0,0,0 s0,0,0,0c0,0,0,0,0,0c0,0,0,0,0,0v0.1H2484.2L2484.2-1988.1z"></path> <path class="st3" d="M2483.2-1985.1L2483.2-1985.1L2483.2-1985.1c-0.1,0.1-0.1,0.1-0.1,0.1c0,0,0,0,0.1,0h1.3c0,0,0,0,0.1,0 c0,0,0,0,0-0.1v-0.1H2483.2z"></path> <path class="st3" d="M2488.6-1989.7l0.6,0.5h3v-0.5H2488.6z"></path> <path class="st4" d="M2505.4-1998.3l-4,6.4c0,0-7.7-8.4-18.1-2.7C2483.3-1994.6,2491.7-2007.8,2505.4-1998.3z"></path> <path class="st5" d="M2505.2-1999.7l-4,6.4c0,0-7.7-8.4-18.1-2.7C2483.1-1995.9,2491.5-2009.2,2505.2-1999.7z"></path> <path class="st4" d="M2497.4-2006.5l0.3,7.5c0,0-11.1-2.6-16.4,8C2481.3-1990.9,2480.8-2006.6,2497.4-2006.5z"></path> <path class="st3" d="M2496.5-2007.5l0.3,7.5c0,0-11.1-2.6-16.4,8C2480.4-1991.9,2479.9-2007.6,2496.5-2007.5z"></path> <path class="st4" d="M2489.3-2002.4l-2.7-5c0,0-11.8,5.7-6.5,18.3C2480.1-1989.1,2479.6-1998.8,2489.3-2002.4z"></path> <path class="st5" d="M2488.2-2002.4l-2.7-5c0,0-11.8,5.7-6.5,18.3C2479-1989.1,2478.5-1998.8,2488.2-2002.4z"></path> <path class="st5" d="M2492.5-1995.6c0,0,4.3-0.1,8.6,3.1c0,0,1.8,8.9-8.7,14c0,0-7.9,3.9-15.5-3c0,0-9.6-9.7,1-20.5 c0,0-4.9,9,2.1,18.1c0,0,2.4,2.9,6.9,2.6c0,0,5-0.3,7-4.7C2493.9-1986,2496.7-1991.4,2492.5-1995.6z"></path> <path class="st3" d="M2500.8-1993.1c0,0,1,3.5-1.4,8.3c0,0-2.4,4.6-7.8,6.7c0,0-11.7,3.2-16.4-6.3c0,0-5.8-9.1,3.3-17.8l1.1-1.9 c0,0-12.1,5.2-7.6,20c0,0,4,10.2,15.3,9.5c0,0,16.2-1,14.9-18L2500.8-1993.1z"></path> </g> </g> </g> </svg> 